<?xml version="1.0" standalone="no"?>
<!DOCTYPE svg PUBLIC "-//W3C//DTD SVG 20010904//EN"
 "http://www.w3.org/TR/2001/REC-SVG-20010904/DTD/svg10.dtd">
<svg version="1.0" xmlns="http://www.w3.org/2000/svg"
 width="1321.000000pt" height="1321.000000pt" viewBox="0 0 1321.000000 1321.000000"
 preserveAspectRatio="xMidYMid meet">
<metadata>
Created by potrace 1.11, written by Peter Selinger 2001-2013
</metadata>
<g transform="translate(0.000000,1321.000000) scale(0.100000,-0.100000)"
fill="#000000" stroke="none">
<path d="M6075 13195 c-22 -8 -49 -15 -61 -15 -11 0 -24 -3 -28 -7 -3 -4 -12
-8 -19 -9 -7 -2 -102 -28 -212 -59 -167 -48 -226 -70 -360 -136 -88 -43 -164
-78 -169 -78 -5 0 -12 -4 -15 -9 -7 -12 -163 -87 -173 -84 -5 1 -8 -2 -8 -7 0
-5 -8 -12 -17 -15 -10 -3 -34 -21 -54 -38 -19 -18 -71 -62 -115 -98 -120 -99
-126 -104 -146 -122 -10 -10 -22 -18 -28 -18 -5 0 -10 -4 -10 -8 0 -5 -35 -36
-77 -70 -120 -95 -153 -129 -232 -237 -39 -55 -77 -107 -84 -115 -7 -8 -20
-27 -29 -41 -9 -14 -23 -32 -30 -40 -7 -8 -26 -32 -41 -54 -15 -22 -38 -54
-50 -70 -78 -107 -98 -141 -142 -240 -26 -60 -68 -152 -92 -203 -23 -52 -43
-95 -43 -97 0 -2 -13 -32 -29 -67 -16 -35 -32 -83 -36 -107 -3 -23 -11 -55
-16 -70 -6 -14 -10 -28 -9 -31 1 -4 -11 -88 -15 -100 -7 -21 -16 -60 -20 -84
-2 -16 -8 -32 -13 -35 -11 -7 -19 -39 -27 -106 -4 -27 -8 -57 -10 -65 -3 -8
-7 -33 -10 -55 -3 -22 -10 -62 -15 -90 -5 -27 -14 -71 -18 -96 -8 -43 -9 -123
-2 -447 1 -76 8 -152 16 -179 8 -25 11 -49 8 -54 -3 -5 -1 -9 3 -9 5 0 9 -8 9
-17 1 -25 12 -73 23 -103 7 -22 18 -63 36 -145 16 -74 37 -148 55 -195 12 -30
23 -62 25 -70 2 -8 15 -46 30 -85 14 -38 27 -74 29 -80 2 -11 33 -97 46 -130
26 -65 39 -105 34 -105 -3 0 4 -13 15 -29 12 -16 21 -34 21 -40 0 -6 3 -11 8
-11 4 0 12 -10 18 -23 45 -93 274 -425 315 -457 3 -3 25 -27 49 -55 155 -181
194 -224 258 -277 17 -16 34 -28 37 -28 5 0 43 -31 75 -60 8 -8 34 -28 55 -45
22 -16 45 -34 52 -40 76 -64 130 -97 263 -162 342 -166 398 -193 405 -193 5 0
35 -10 68 -22 46 -17 55 -23 41 -28 -10 -4 -21 -4 -24 0 -3 5 -18 11 -35 14
-16 3 -42 8 -56 12 -15 3 -29 1 -33 -4 -4 -7 -17 -7 -37 -2 -32 10 -89 3 -89
-10 0 -4 -25 -11 -56 -15 -31 -4 -53 -9 -50 -12 3 -4 1 -12 -5 -20 -9 -10 -15
-10 -25 -2 -10 8 -33 2 -96 -27 -46 -21 -91 -44 -100 -52 -10 -9 -18 -11 -18
-6 0 5 -4 4 -8 -2 -4 -6 -29 -25 -57 -44 -67 -44 -84 -63 -127 -145 -62 -118
-77 -168 -83 -267 -3 -51 -7 -109 -10 -128 -2 -19 -7 -57 -10 -85 -6 -51 -98
-318 -119 -345 -10 -13 -24 -38 -60 -105 -12 -22 -42 -51 -101 -97 -63 -49
-261 -316 -269 -362 -1 -6 -9 -24 -18 -41 -16 -30 -39 -103 -44 -140 -1 -11
-3 -20 -4 -20 -1 0 -3 -15 -6 -33 -3 -28 0 -35 16 -39 24 -6 25 -15 6 -56 -8
-18 -22 -54 -32 -82 -10 -27 -24 -61 -31 -75 -7 -14 -13 -31 -13 -38 0 -7 -4
-20 -10 -30 -5 -9 -20 -46 -34 -82 -28 -73 -69 -180 -87 -225 -7 -16 -13 -32
-13 -35 -3 -11 -59 -157 -72 -185 -7 -16 -27 -88 -44 -160 -39 -162 -40 -165
-46 -195 -3 -14 -7 -33 -10 -42 -5 -18 -12 -48 -19 -93 -3 -16 -15 -77 -27
-135 -11 -58 -22 -123 -24 -145 -1 -22 -3 -40 -4 -40 -14 0 -19 -573 -7 -715
10 -117 16 -171 23 -200 13 -62 91 -241 132 -303 40 -59 46 -74 46 -123 1 -32
-4 -58 -11 -62 -14 -9 -22 -45 -28 -137 -4 -55 0 -88 21 -160 31 -108 113
-266 163 -313 122 -115 178 -156 281 -205 69 -32 131 -39 186 -20 36 12 46 22
66 65 24 51 24 52 7 87 -10 20 -21 52 -24 71 -7 46 -5 44 -120 129 -135 99
-156 120 -146 140 5 9 12 36 17 61 4 25 8 47 9 50 1 3 5 21 10 40 5 19 9 42
10 50 3 30 29 125 36 134 4 4 47 -32 96 -81 96 -98 161 -147 246 -188 70 -32
92 -27 137 33 19 26 38 49 42 52 4 3 -3 35 -15 70 -32 95 -169 313 -244 388
-50 51 -61 67 -55 83 5 11 12 20 17 20 14 0 25 22 112 244 44 110 83 209 88
220 5 11 9 22 10 25 8 34 61 187 66 194 4 4 8 -77 8 -180 0 -174 3 -200 31
-324 17 -74 33 -146 36 -160 3 -14 16 -56 30 -95 14 -38 30 -86 35 -105 6 -19
14 -44 18 -55 20 -49 30 -77 65 -180 21 -60 40 -117 43 -125 4 -8 7 -17 8 -20
1 -3 4 -12 8 -20 3 -8 17 -49 31 -90 25 -74 25 -75 5 -90 -18 -15 -24 -46 -18
-95 2 -11 -3 -33 -11 -48 -12 -24 -12 -32 3 -56 15 -26 15 -32 -14 -122 -17
-52 -32 -98 -33 -104 -1 -5 -7 -23 -13 -40 -6 -16 -19 -55 -28 -85 -9 -30 -19
-62 -22 -70 -7 -17 -13 -95 -13 -156 0 -29 -11 -62 -40 -115 -77 -141 -190
-383 -196 -419 -3 -14 -7 -37 -10 -52 -3 -14 0 -46 7 -70 7 -23 13 -74 15
-113 1 -38 2 -82 3 -97 1 -24 11 -33 69 -62 53 -27 85 -35 157 -42 167 -15
452 -10 585 11 14 2 45 7 70 10 50 8 75 13 75 15 0 1 9 3 20 5 23 4 87 18 95
20 20 5 129 29 145 31 11 1 20 3 20 4 0 1 9 3 20 5 23 5 147 39 220 61 28 8
55 16 60 17 6 1 15 5 20 9 6 3 27 9 47 13 20 4 83 34 139 66 56 32 104 59 105
59 2 0 28 16 59 35 52 34 55 38 56 78 1 50 4 105 14 252 9 133 9 160 2 250 -8
84 -50 253 -80 315 -11 24 -20 56 -18 70 1 14 3 40 4 58 0 17 3 32 7 32 4 0 4
18 0 40 -4 23 -3 40 2 40 5 0 6 5 3 11 -4 6 -6 38 -5 72 3 83 3 74 -5 222 -7
141 -7 157 -2 195 3 25 -13 56 -53 98 -12 13 -19 26 -16 29 3 3 40 7 83 9 43
2 78 4 78 5 0 1 14 3 30 4 34 2 139 15 169 21 53 10 126 4 143 -13 7 -6 18
-13 25 -16 8 -3 -25 -43 -82 -100 -101 -102 -101 -102 -115 -227 -3 -30 -8
-66 -11 -80 -11 -57 -26 -253 -26 -340 0 -172 4 -235 13 -215 12 25 7 -6 -17
-115 -8 -41 -18 -86 -20 -100 -8 -49 -14 -85 -18 -105 -2 -11 -6 -41 -10 -66
-4 -25 -8 -57 -10 -70 -3 -13 -7 -44 -10 -69 -3 -25 -9 -67 -13 -95 -14 -95
-5 -467 12 -510 8 -19 81 -95 92 -95 3 0 42 -18 87 -39 46 -22 96 -42 112 -44
16 -3 62 -13 103 -21 41 -9 99 -19 130 -23 76 -9 352 -8 426 1 33 5 69 9 80
11 11 1 20 3 20 4 0 1 20 4 45 7 25 2 88 16 140 30 52 15 100 27 105 28 6 1
42 17 80 36 39 18 94 45 123 59 78 38 101 67 107 130 2 29 0 62 -6 73 -10 18
-7 42 17 148 7 31 9 185 4 263 -3 53 -17 117 -33 157 -3 8 -15 51 -27 95 -50
185 -55 262 -24 378 18 68 31 80 55 51 15 -19 119 -17 159 2 18 8 31 9 43 2
21 -11 97 -15 150 -6 20 4 37 3 37 0 0 -7 107 -9 123 -3 4 2 10 4 15 6 17 5
47 19 52 25 3 3 19 16 35 29 91 69 212 182 271 252 24 29 51 95 59 141 3 18 8
45 11 60 3 15 7 42 9 60 3 18 7 51 11 73 12 69 11 144 -1 228 -11 78 -11 82 9
99 12 10 25 17 29 18 7 0 66 119 72 145 1 6 4 17 8 25 10 29 30 113 33 139 1
14 3 26 4 26 0 0 3 20 6 44 2 25 6 54 8 66 5 24 17 142 22 195 1 19 3 35 4 35
1 0 3 27 5 60 9 117 13 153 18 162 12 19 2 1086 -10 1121 -11 31 -15 59 -28
222 -8 90 -14 136 -37 285 -6 38 -12 83 -13 100 -4 44 -24 118 -51 190 -7 17
-6 18 8 7 13 -10 20 -2 53 62 33 65 36 76 25 97 -7 13 -16 26 -19 29 -3 3 -13
19 -21 35 -8 17 -18 32 -21 35 -4 3 -20 28 -36 55 -78 131 -136 220 -144 223
-5 2 -9 8 -9 13 0 5 -16 33 -35 62 -36 54 -99 100 -143 104 -32 3 -77 37 -113
88 -18 25 -36 45 -41 45 -4 0 -8 4 -8 10 0 10 -20 37 -53 72 -20 21 -44 66
-102 193 -20 44 -45 98 -55 120 -23 50 -32 74 -36 100 -2 11 -15 65 -29 120
-14 55 -28 120 -31 145 -3 25 -7 56 -10 70 -3 14 -6 32 -8 40 -8 52 -32 107
-59 138 -54 60 -81 86 -103 98 -72 40 -123 64 -146 68 -15 2 -74 19 -130 37
-57 18 -106 32 -110 31 -5 -1 -8 2 -8 6 0 5 -9 18 -19 29 -15 15 -33 21 -68
22 -26 1 -59 3 -73 4 -14 2 -29 1 -35 -2 -18 -10 -37 -10 -64 0 -25 10 -23 12
44 41 215 93 273 121 304 148 18 17 37 30 40 30 3 0 17 10 31 23 14 12 54 45
90 72 36 27 67 53 68 57 2 4 8 8 13 8 9 0 23 11 84 63 18 15 37 27 42 27 5 0
15 9 23 20 8 11 20 20 26 20 7 0 14 3 16 8 2 4 23 23 48 42 55 43 65 53 114
115 22 28 47 57 55 66 9 9 30 33 46 55 17 21 37 45 45 54 8 8 33 38 55 65 22
28 42 52 45 55 15 13 51 72 86 140 21 41 41 77 44 80 3 3 18 30 34 60 15 30
39 75 52 100 134 238 170 326 209 510 2 8 4 15 5 15 1 0 3 9 5 20 4 23 2 14
50 205 44 173 44 171 50 238 3 28 8 78 11 110 3 31 7 75 9 97 2 22 7 72 11
110 3 39 6 78 6 87 0 10 3 20 8 23 5 3 7 11 5 18 -2 7 -6 46 -9 87 -3 41 -8
91 -11 110 -4 32 -9 74 -21 170 -6 45 -12 102 -19 167 -3 29 -22 105 -41 170
-19 65 -37 129 -40 142 -3 13 -9 32 -15 43 -5 10 -7 18 -4 18 3 0 1 9 -5 21
-6 11 -13 28 -15 38 -5 25 -250 516 -265 531 -3 3 -11 16 -18 29 -41 72 -52
91 -83 146 -18 33 -37 62 -41 63 -4 2 -8 7 -8 12 0 4 -17 25 -37 47 -80 82
-183 194 -183 198 0 7 -42 46 -141 134 -153 136 -162 144 -213 185 -26 21 -55
46 -64 56 -10 9 -44 38 -77 66 -33 27 -62 51 -65 54 -7 7 -42 29 -65 40 -11 5
-85 50 -165 100 -183 114 -212 127 -395 184 -316 99 -441 138 -455 143 -58 23
-113 25 -580 29 -381 3 -462 1 -495 -11z m1589 -5819 c-6 -17 -64 -24 -64 -7
0 7 61 31 68 26 1 -1 0 -10 -4 -19z m-126 -57 c-9 -6 -14 -3 -16 8 -2 8 2 19
10 24 9 6 14 3 16 -8 2 -8 -2 -19 -10 -24z m768 -2086 c-12 -46 -17 -87 -20
-191 -2 -63 -7 -116 -10 -119 -3 -4 -6 9 -6 28 0 20 -5 62 -11 95 -7 32 -13
70 -14 84 -1 24 18 80 38 108 14 18 29 15 23 -5z m-2905 -67 c4 -15 4 -39 -1
-52 -5 -13 -7 -30 -4 -37 2 -7 -2 -27 -11 -43 -8 -16 -15 -25 -15 -20 0 5 -6
4 -12 -2 -7 -5 -41 -22 -76 -36 l-63 -25 37 67 c48 87 116 182 128 179 6 -2
13 -16 17 -31z m2876 -308 c-3 -8 -6 -5 -6 6 -1 11 2 17 5 13 3 -3 4 -12 1
-19z m-13 -139 c-4 -6 -9 -55 -11 -108 -6 -129 -8 -133 -45 -80 -18 24 -37 47
-43 51 -5 4 -6 8 -2 8 4 0 -13 19 -38 43 l-45 43 32 -2 c18 -1 52 3 76 9 34 9
44 17 54 44 9 26 14 30 21 18 4 -8 5 -20 1 -26z m360 -2266 c8 -30 -5 -339
-17 -404 -4 -24 -51 -109 -59 -109 -5 0 -8 -6 -8 -14 0 -15 -77 -106 -90 -106
-5 0 -7 10 -4 23 16 77 31 208 41 342 4 49 13 86 33 125 15 31 33 76 40 100 7
25 17 48 24 52 19 13 34 9 40 -9z"/>
</g>
</svg>
